<svg width="50" height="51" viewBox="0 0 50 51" fill="none" xmlns="http://www.w3.org/2000/svg">
<path fill-rule="evenodd" clip-rule="evenodd" d="M25 50.2242C38.8071 50.2242 50 39.0275 50 25.2156C50 11.4038 38.8071 0.207031 25 0.207031C11.1929 0.207031 0 11.4038 0 25.2156C0 39.0275 11.1929 50.2242 25 50.2242Z" fill="#E1FFF2"/>
<path fill-rule="evenodd" clip-rule="evenodd" d="M26.0877 14.4279C25.734 14.1393 25.2251 14.1393 24.8714 14.4279L14.3114 23.0396C14.0029 23.2912 13.8825 23.7067 14.009 24.0835L17.849 35.5657C17.9799 35.9562 18.3469 36.2195 18.76 36.2192H32.2C32.6134 36.2193 32.9804 35.9557 33.111 35.5648L36.951 24.0825C37.0775 23.7057 36.9571 23.2903 36.6486 23.0386L26.0877 14.4279Z" fill="#87EABE"/>
</svg>
