<svg width="50" height="51" viewBox="0 0 50 51" fill="none" xmlns="http://www.w3.org/2000/svg">
<path fill-rule="evenodd" clip-rule="evenodd" d="M25 50.1275C38.8071 50.1275 50 38.9308 50 25.1189C50 11.3071 38.8071 0.110352 25 0.110352C11.1929 0.110352 0 11.3071 0 25.1189C0 38.9308 11.1929 50.1275 25 50.1275Z" fill="#FED4D5"/>
<path fill-rule="evenodd" clip-rule="evenodd" d="M35.2194 21.7258L28.4216 20.7412L25.3851 14.6058C25.2055 14.3018 24.878 14.1152 24.524 14.1152C24.17 14.1152 23.8425 14.3018 23.6629 14.6058L20.6206 20.7412L13.8229 21.7258C13.4613 21.7778 13.1606 22.0299 13.0473 22.3761C12.9341 22.7224 13.0278 23.1027 13.2891 23.3572L18.2091 28.1357L17.0485 34.8844C16.9868 35.2433 17.1349 35.6061 17.4305 35.8201C17.7261 36.0342 18.118 36.0624 18.4414 35.8929L24.5211 32.7075L30.6008 35.8929C30.9242 36.0624 31.3161 36.0342 31.6117 35.8201C31.9074 35.6061 32.0555 35.2433 31.9938 34.8844L30.8331 28.1357L35.7531 23.3572C36.0144 23.1029 36.1083 22.723 35.9955 22.3769C35.8826 22.0307 35.5826 21.7784 35.2213 21.7258H35.2194Z" fill="#FE6B6F"/>
</svg>
