<svg width="16" height="16" viewBox="0 0 16 16" fill="none" xmlns="http://www.w3.org/2000/svg">
<path fill-rule="evenodd" clip-rule="evenodd" d="M4.7015 0.048C5.555 0.009 5.8275 0 8 0C10.1725 0 10.445 0.009 11.2985 0.048C12.599 0.1075 13.741 0.426 14.6575 1.3425C15.574 2.2595 15.8925 3.4015 15.952 4.7015C15.991 5.555 16 5.8275 16 8C16 10.1725 15.991 10.445 15.952 11.2985C15.8925 12.599 15.574 13.741 14.6575 14.6575C13.7405 15.574 12.5985 15.8925 11.2985 15.952C10.445 15.991 10.1725 16 8 16C5.8275 16 5.555 15.991 4.7015 15.952C3.401 15.8925 2.259 15.574 1.3425 14.6575C0.426 13.7405 0.1075 12.5985 0.048 11.2985C0.009 10.445 0 10.1725 0 8C0 5.8275 0.009 5.555 0.048 4.7015C0.1075 3.401 0.426 2.259 1.3425 1.3425C2.2595 0.426 3.4015 0.1075 4.7015 0.048ZM11.2325 1.488C10.389 1.4495 10.136 1.4415 8 1.4415C5.864 1.4415 5.611 1.4495 4.7675 1.488C3.857 1.5295 3.012 1.712 2.362 2.362C1.712 3.012 1.5295 3.857 1.488 4.7675C1.4495 5.611 1.4415 5.864 1.4415 8C1.4415 10.136 1.4495 10.389 1.488 11.2325C1.5295 12.143 1.712 12.988 2.362 13.638C3.012 14.288 3.857 14.4705 4.7675 14.512C5.611 14.5505 5.864 14.5585 8 14.5585C10.136 14.5585 10.389 14.5505 11.2325 14.512C12.143 14.4705 12.988 14.288 13.638 13.638C14.288 12.988 14.4705 12.143 14.512 11.2325C14.5505 10.389 14.5585 10.136 14.5585 8C14.5585 5.864 14.5505 5.611 14.512 4.7675C14.4705 3.857 14.288 3.012 13.638 2.362C12.988 1.712 12.143 1.5295 11.2325 1.488Z" fill="#535B6C"/>
<path fill-rule="evenodd" clip-rule="evenodd" d="M3.89209 7.99997C3.89209 5.73147 5.73109 3.89197 8.00009 3.89197C10.2691 3.89197 12.1081 5.73097 12.1081 7.99997C12.1081 10.2685 10.2686 12.108 8.00009 12.108C5.73159 12.108 3.89209 10.269 3.89209 7.99997ZM5.33359 7.99997C5.33359 9.47247 6.52709 10.6665 8.00009 10.6665C9.47309 10.6665 10.6666 9.47297 10.6666 7.99997C10.6666 6.52747 9.47309 5.33347 8.00009 5.33347C6.52759 5.33347 5.33359 6.52697 5.33359 7.99997Z" fill="#535B6C"/>
<path fill-rule="evenodd" clip-rule="evenodd" d="M12.2705 4.68953C12.8007 4.68953 13.2305 4.25972 13.2305 3.72953C13.2305 3.19934 12.8007 2.76953 12.2705 2.76953C11.7404 2.76953 11.3105 3.19934 11.3105 3.72953C11.3105 4.25972 11.7404 4.68953 12.2705 4.68953Z" fill="#535B6C"/>
</svg>
