<svg width="1920" height="615" viewBox="0 0 1920 615" fill="none" xmlns="http://www.w3.org/2000/svg">
<path fill-rule="evenodd" clip-rule="evenodd" d="M-42.8376 94.0616C-20.4949 2.78179 86.4694 -20.8534 221.999 20.379C357.529 61.6114 320.556 197.2 459.155 216.455C597.753 235.711 560.117 151.591 661.499 140.605C762.882 129.618 758.14 206.845 915.064 189.489C1071.99 172.132 1098.13 61.8298 1305.92 68.8589C1513.71 75.888 1605.49 174.888 1712.24 216.455C1818.98 258.023 1982.14 140.605 1982.14 140.605C1982.14 140.605 2541.86 770.511 1982.14 1091.15C1422.42 1411.78 413.402 1369.37 -51.616 1091.15C-516.634 812.919 -65.1803 185.341 -42.8376 94.0616Z" fill="#87EABE"/>
</svg>
