<svg width="399px" height="276px" viewBox="0 0 401 281" fill="none" xmlns="http://www.w3.org/2000/svg">
<path d="M237.359 244.5L239.015 243.379L238.993 243.347L238.97 243.316L237.359 244.5ZM313.04 3L314.829 2.10411L313.962 0.373761L312.204 1.18343L313.04 3ZM321.449 19.7838L322.286 21.6004L324.163 20.7357L323.238 18.8879L321.449 19.7838ZM251.374 96.2432L253.257 96.9171L253.268 96.8857L253.278 96.8539L251.374 96.2432ZM248.571 147.527L246.648 148.077L247.683 151.692L250.102 148.814L248.571 147.527ZM23.3586 244.5L25.0147 243.379L24.9931 243.347L24.9702 243.316L23.3586 244.5ZM99.0404 3L100.829 2.10411L99.9616 0.373761L98.2037 1.18343L99.0404 3ZM107.449 19.7838L108.286 21.6004L110.163 20.7357L109.238 18.8879L107.449 19.7838ZM37.3737 96.2432L39.2568 96.9171L39.268 96.8857L39.2782 96.8539L37.3737 96.2432ZM34.5707 147.527L32.648 148.077L33.6828 151.692L36.1018 148.814L34.5707 147.527ZM311.172 277C278.039 277 254.134 265.709 239.015 243.379L235.702 245.621C251.729 269.291 277.031 281 311.172 281V277ZM238.97 243.316C232.305 234.245 226.785 222.056 222.466 206.662L218.615 207.743C223.016 223.431 228.708 236.106 235.747 245.684L238.97 243.316ZM222.466 206.662C218.162 191.322 216 174.413 216 155.919H212C212 174.723 214.198 192.002 218.615 207.743L222.466 206.662ZM216 155.919C216 123.962 224.308 94.4872 240.931 67.453L237.524 65.3578C220.51 93.0266 212 123.227 212 155.919H216ZM240.931 67.453C257.52 40.4745 281.804 19.5894 313.877 4.81657L312.204 1.18343C279.496 16.2486 254.571 37.6334 237.524 65.3578L240.931 67.453ZM311.252 3.89589L319.661 20.6797L323.238 18.8879L314.829 2.10411L311.252 3.89589ZM320.613 17.9672C304.16 25.5453 289.464 36.4329 276.526 50.6042L279.48 53.3012C292.08 39.4994 306.348 28.9413 322.286 21.6004L320.613 17.9672ZM276.526 50.6042C263.593 64.7692 254.553 79.7776 249.469 95.6326L253.278 96.8539C258.161 81.6277 266.873 67.1093 279.48 53.3012L276.526 50.6042ZM249.491 95.5693C246.281 104.539 244.702 115.034 244.702 127.014H248.702C248.702 115.372 250.238 105.353 253.257 96.9171L249.491 95.5693ZM244.702 127.014C244.702 136.371 245.321 143.443 246.648 148.077L250.493 146.977C249.329 142.908 248.702 136.305 248.702 127.014H244.702ZM250.102 148.814C265.853 130.072 287.985 120.622 316.778 120.622V116.622C287.018 116.622 263.679 126.442 247.04 146.24L250.102 148.814ZM316.778 120.622C341.302 120.622 360.707 127.494 375.209 141.062L377.942 138.141C362.545 123.736 342.085 116.622 316.778 116.622V120.622ZM375.209 141.062C389.66 154.581 397 173.733 397 198.811H401C401 172.916 393.391 152.594 377.942 138.141L375.209 141.062ZM397 198.811C397 222.558 389.093 241.418 373.368 255.603L376.047 258.573C392.712 243.541 401 223.55 401 198.811H397ZM373.368 255.603C357.61 269.816 336.943 277 311.172 277V281C337.724 281 359.413 273.576 376.047 258.573L373.368 255.603ZM97.1717 277C64.0389 277 40.1336 265.709 25.0147 243.379L21.7025 245.621C37.7285 269.291 63.0315 281 97.1717 281V277ZM24.9702 243.316C18.3051 234.245 12.7851 222.056 8.46604 206.662L4.61476 207.743C9.01631 223.431 14.7083 236.106 21.7469 245.684L24.9702 243.316ZM8.46604 206.662C4.16205 191.322 2 174.413 2 155.919H-2C-2 174.723 0.198177 192.002 4.61476 207.743L8.46604 206.662ZM2 155.919C2 123.962 10.3078 94.4872 26.931 67.453L23.5236 65.3578C6.5102 93.0266 -2 123.227 -2 155.919H2ZM26.931 67.453C43.5199 40.4745 67.8037 19.5894 99.8771 4.81657L98.2037 1.18343C65.4956 16.2486 40.5712 37.6334 23.5236 65.3578L26.931 67.453ZM97.2523 3.89589L105.661 20.6797L109.238 18.8879L100.829 2.10411L97.2523 3.89589ZM106.613 17.9672C90.16 25.5453 75.4636 36.4329 62.5255 50.6042L65.4795 53.3012C78.0803 39.4994 92.3482 28.9413 108.286 21.6004L106.613 17.9672ZM62.5255 50.6042C49.5931 64.7692 40.5532 79.7776 35.4693 95.6326L39.2782 96.8539C44.1606 81.6277 52.8731 67.1093 65.4795 53.3012L62.5255 50.6042ZM35.4907 95.5693C32.2807 104.539 30.702 115.034 30.702 127.014H34.702C34.702 115.372 36.2378 105.353 39.2568 96.9171L35.4907 95.5693ZM30.702 127.014C30.702 136.371 31.3211 143.443 32.648 148.077L36.4935 146.977C35.3287 142.908 34.702 136.305 34.702 127.014H30.702ZM36.1018 148.814C51.8532 130.072 73.9851 120.622 102.778 120.622V116.622C73.018 116.622 49.6789 126.442 33.0396 146.24L36.1018 148.814ZM102.778 120.622C127.302 120.622 146.707 127.494 161.209 141.062L163.942 138.141C148.545 123.736 128.085 116.622 102.778 116.622V120.622ZM161.209 141.062C175.66 154.581 183 173.733 183 198.811H187C187 172.916 179.391 152.594 163.942 138.141L161.209 141.062ZM183 198.811C183 222.558 175.093 241.418 159.368 255.603L162.047 258.573C178.712 243.541 187 223.55 187 198.811H183ZM159.368 255.603C143.61 269.816 122.943 277 97.1717 277V281C123.724 281 145.413 273.576 162.047 258.573L159.368 255.603Z" fill="#87EABE"/>
</svg>
